<svg width="800" height="320" xmlns="http://www.w3.org/2000/svg" xmlns:xlink="http://www.w3.org/1999/xlink"><defs><path id="a" d="M0 0h800v320H0z"/></defs><g fill="none" fill-rule="evenodd"><mask id="b" fill="#fff"><use xlink:href="#a"/></mask><path d="M598.525 415.805c-303.31-47.63-534.58-117.697-527.686-216.289C77.733 100.924 325.164 37.911 623.49 58.772c298.327 20.861 506.654 105.625 571.278 228.177 64.623 122.551-292.935 176.486-596.244 128.856z" fill="#224465" opacity=".2" mask="url(#b)"/><path d="M126.25 442.665c-320.268 47.933-574.172 53.502-595.547-39.083-21.375-92.585 210.605-225.198 518.141-296.198 307.537-71 542.475-56.146 643.026 36.822 100.551 92.968-245.352 250.526-565.62 298.46z" fill="#224465" opacity=".6" mask="url(#b)"/><path d="M419.938 733.763c-345.42-46.426-603.2-296.552-488.164-479.33C46.81 71.655 295.29-43.444 572.241 15.561c276.952 59.005 530.221 281.004 488.164 479.33-42.058 198.326-295.047 285.298-640.467 238.872z" fill="#224465" opacity=".05" mask="url(#b)"/><path d="M800 1680H0V144.516C157.91 89.506 303.642 62 437.198 62 570.753 62 691.688 78.88 800 112.638V1680z" fill="#224465" fill-rule="nonzero" mask="url(#b)"/></g></svg>