<svg width="192" height="192" viewBox="0 0 192 192" xmlns="http://www.w3.org/2000/svg"><path d="M0 24C0 10.746 10.752 0 24 0h144c13.254 0 24 10.752 24 24v144c0 13.254-10.752 24-24 24H24c-13.255 0-24-10.752-24-24V24zm157.912 90.853s-9.627-10.188-18.056-19.044a8676.573 8676.573 0 0 0 18.056-19.043c3.024-2.977 18.413-21.595-4.134-43.542-20.381-19.838-36.755-5.047-39.904-1.978L95.246 50.197S83.292 37.57 81.986 36.312C80.679 35.055 69.12 23 56.056 23c-22.618 0-30.008 14.791-30.008 28.972 0 3.994.09 27.345 0 43.837-.108 17.99 0 32.393 0 33.28 0 7.673-.215 21.928 11.917 32.245 5.519 4.645 12.405 7.208 19.523 7.266 7.451-.038 14.607-3.014 20.006-8.32 2.792-2.625 8.947-8.893 18.467-18.692l18.11 18.489c3.149 3.05 19.54 17.86 39.922-1.979 22.583-21.964 6.943-40.268 3.919-43.245zM69.37 151.017c-6.556 6.433-16.76 6.697-23.62.61-7.641-6.49-7.588-16.085-7.516-22.427 0-.998-.09-19.32 0-33.428.107-17.38 0-40.306 0-44.502 0-13.165 18.145-23.093 34.948-6.25l38.455 40.25a5.944 5.944 0 0 0 8.445-.095c2.332-2.374 2.427-6.23.216-8.724l-16.481-17.305 18.539-18.877c2.29-2.33 12.347-8.339 23.638 2.607 10.737 10.427 5.476 22.852 3.24 25.126-1.271 1.35-42.822 44.65-42.84 44.67-1.538 1.588-2.138 3.903-1.575 6.073.562 2.17 2.203 3.865 4.303 4.447 2.1.581 4.341-.04 5.879-1.628 0 0 9.448-9.558 16.284-16.732l17.894 18.748c2.237 2.274 7.784 14.384-2.97 24.812-11.31 10.945-21.366 4.936-23.639 2.607L100.4 128.22 68.421 95.18 84.33 78.54c2.382-2.45 2.39-6.432.018-8.893a5.949 5.949 0 0 0-8.607-.018L60.673 85.474c-1.449 1.516-4.67 3.957-5.207 8.338-.367 3.53.924 7.03 3.472 9.411l28.63 29.583c-9.447 9.54-15.532 15.697-18.198 18.211z" fill-rule="evenodd"/></svg>