<?xml version="1.0" encoding="UTF-8"?>
<svg width="192px" height="192px" viewBox="0 0 192 192" version="1.1" xmlns="http://www.w3.org/2000/svg" xmlns:xlink="http://www.w3.org/1999/xlink">
    <!-- Generator: Sketch 53.2 (72643) - https://sketchapp.com -->
    <title>mask-icon</title>
    <desc>Created with Sketch.</desc>
    <g stroke="none" stroke-width="1" fill="none" fill-rule="evenodd">
        <g transform="translate(-50.000000, -50.000000)" fill="#000000">
            <path d="M50,74 C50,60.74624 60.752,50 74,50 L218,50 C231.25376,50 242,60.752 242,74 L242,218 C242,231.25376 231.248,242 218,242 L74,242 C60.74528,242 50,231.248 50,218 L50,74 Z M207.9119,164.8528 C207.9119,164.8528 198.284688,154.665422 189.856403,145.809244 C198.284688,136.953067 207.9119,126.765689 207.9119,126.765689 C210.936062,123.788978 226.325287,105.170667 203.778283,83.2243556 C183.396508,63.3857778 167.023088,78.1768889 163.873666,81.2460444 L145.245546,100.197156 C145.245546,100.197156 133.292055,87.5692444 131.985761,86.312 C130.679466,85.0547556 119.119653,73 106.056707,73 C83.4381252,73 76.0477185,87.7911111 76.0477185,101.972089 C76.0477185,105.965689 76.1371908,129.317156 76.0477185,145.809244 C75.9403518,163.798933 76.0477185,178.201778 76.0477185,179.089244 C76.0477185,186.762133 75.8329852,201.017067 87.9654204,211.333867 C93.4839519,215.979305 100.37027,218.542297 107.488262,218.6 C114.939349,218.561739 122.095206,215.585794 127.494254,210.28 C130.285788,207.654578 136.441478,201.386844 145.961324,191.587733 L164.070505,210.076622 C167.219927,213.127289 183.611241,227.936889 203.993016,208.098311 C226.575809,186.133511 210.936062,167.829511 207.9119,164.8528 Z M119.370175,201.017067 C112.813544,207.450094 102.609061,207.71368 95.749505,201.6272 C88.108576,195.1376 88.1622593,185.541867 88.2338371,179.200178 C88.2338371,178.201778 88.1443649,159.879289 88.2338371,145.772267 C88.3412038,128.392711 88.2338371,105.466489 88.2338371,101.269511 C88.2338371,88.1054222 106.378807,78.1768889 123.181693,95.0202667 L161.63686,135.270578 C164.018382,137.59158 167.750496,137.549336 170.082234,135.174983 C172.413972,132.800631 172.509221,128.945563 170.297772,126.451378 L153.816986,109.145778 L172.355634,90.2686222 C174.646123,87.9390222 184.702802,81.9301333 195.994199,92.8755556 C206.730867,103.303289 201.469899,115.727822 199.233094,118.001956 C197.962588,119.351644 156.411681,162.652622 156.393787,162.671111 C154.856253,164.25972 154.255778,166.575169 154.818554,168.745249 C155.381331,170.91533 157.021859,172.610356 159.122169,173.191827 C161.222479,173.773298 163.463482,173.152876 165.001016,171.564267 C165.001016,171.564267 174.449284,162.005511 181.284963,154.831822 L199.17941,173.579556 C201.416216,175.853689 206.963495,187.963911 196.208932,198.391644 C184.899641,209.337067 174.842962,203.328178 172.570367,200.998578 L150.399147,178.220267 L118.42177,145.180622 L134.329933,128.540622 C136.711695,126.089951 136.719707,122.108349 134.347828,119.647467 C131.975948,117.186584 128.122361,117.178306 125.740599,119.628978 L110.673474,135.473956 C109.224024,136.990044 106.003023,139.430578 105.46619,143.812444 C105.099099,147.342638 106.389628,150.841094 108.937713,153.223289 L137.568828,182.805511 C128.12056,192.345778 122.036448,198.502578 119.370175,201.017067 Z"></path>
        </g>
    </g>
</svg>